# xmcd CD database file
#
# Track frame offsets:
#	150
#	16263
#	38703
#	61360
#	84387
#	99775
#	113585
#	130073
#	155210
#	181335
#	195840
#	213528
#	230355
#	254683
#	279758
#	299778
#
# Disc length: 4274 seconds
#
# Revision: 12
# Processed by: cddbd v1.5.2PL0 Copyright (c) Steve Scherf et al.
# Submitted via: CDex 1.70beta3
#
DISCID=d810b010
DTITLE=オムニバス - Disco Nights
DYEAR=2002
DGENRE=Disco
TTITLE0=セプテンバー
TTITLE1=プレイ・ザット・ファンキー・ミュージック(オリジナル・アルバム・ヴァージョン)
TTITLE2=ブギー・ナイツ
TTITLE3=ガット・トゥ・ビー・リアル
TTITLE4=インスタント・リプレイ
TTITLE5=裏切り者のテーマ
TTITLE6=ベスト・オブ・マイ・ラヴ
TTITLE7=レッツ・グルーヴ
TTITLE8=T.S.O.P.（ソウル・トレインのテーマ）
TTITLE9=荒野のならず者
TTITLE10=レディ・マーマレード
TTITLE11=リライト・マイ・ファイヤー
TTITLE12=ハレルヤ・ハリケーン
TTITLE13=ソウル・レディ(パート1&2)
TTITLE14=イン・ザ・ナイト
TTITLE15=宇宙のファンタジー
EXTD=YEAR: 2002
EXTT0=
EXTT1=
EXTT2=
EXTT3=
EXTT4=
EXTT5=
EXTT6=
EXTT7=
EXTT8=
EXTT9=
EXTT10=
EXTT11=
EXTT12=
EXTT13=
EXTT14=
EXTT15=
PLAYORDER=
